<svg width="69" height="69" viewBox="0 0 69 69" fill="none" xmlns="http://www.w3.org/2000/svg">
<path d="M22.1016 36.6562H32.3438V46.8984C32.3438 47.1949 32.5863 47.4375 32.8828 47.4375H36.1172C36.4137 47.4375 36.6562 47.1949 36.6562 46.8984V36.6562H46.8984C47.1949 36.6562 47.4375 36.4137 47.4375 36.1172V32.8828C47.4375 32.5863 47.1949 32.3438 46.8984 32.3438H36.6562V22.1016C36.6562 21.8051 36.4137 21.5625 36.1172 21.5625H32.8828C32.5863 21.5625 32.3438 21.8051 32.3438 22.1016V32.3438H22.1016C21.8051 32.3438 21.5625 32.5863 21.5625 32.8828V36.1172C21.5625 36.4137 21.8051 36.6562 22.1016 36.6562Z" fill="black" fill-opacity="0.62"/>
<path d="M59.2969 7.54688H9.70312C8.51045 7.54688 7.54688 8.51045 7.54688 9.70312V59.2969C7.54688 60.4896 8.51045 61.4531 9.70312 61.4531H59.2969C60.4896 61.4531 61.4531 60.4896 61.4531 59.2969V9.70312C61.4531 8.51045 60.4896 7.54688 59.2969 7.54688ZM56.6016 56.6016H12.3984V12.3984H56.6016V56.6016Z" fill="black" fill-opacity="0.62"/>
</svg>
